<?xml version="1.0" encoding="utf-8"?>
<svg width="700pt" height="700pt" version="1.1" viewBox="0 0 700 700" xmlns="http://www.w3.org/2000/svg">
  <g>
    <path d="m368.25 407.63c0 23.039-18.68 41.719-41.723 41.719-23.039 0-41.719-18.68-41.719-41.719 0-23.043 18.68-41.723 41.719-41.723 23.043 0 41.723 18.68 41.723 41.723"/>
    <path d="m351.35 461.2h-49.648s-39.324-0.61328-43.066 20.859c-3.7461 21.488-7.4219 58.258-7.4219 58.258h150.62s-3.6562-36.785-7.4023-58.258c-3.7422-21.473-43.082-20.859-43.082-20.859z"/>
    <path d="m188.05 407.63c0 23.039-18.68 41.719-41.719 41.719-23.043 0-41.723-18.68-41.723-41.719 0-23.043 18.68-41.723 41.723-41.723 23.039 0 41.719 18.68 41.719 41.723"/>
    <path d="m171.17 461.2h-49.664s-39.324-0.61328-43.066 20.859c-3.7461 21.488-7.4023 58.258-7.4023 58.258h150.6s-3.6562-36.785-7.4023-58.258c-3.7617-21.473-43.066-20.859-43.066-20.859z"/>
    <path d="m580.7 65.711c0 25.43-20.613 46.043-46.043 46.043-25.43 0-46.043-20.613-46.043-46.043 0-25.426 20.613-46.039 46.043-46.039 25.43 0 46.043 20.613 46.043 46.039"/>
    <path d="m599.76 138.74c-14.719-8.5391-36.242-7.875-36.242-7.875l-28.84 45.867-28.84-45.867s-27.844 0.68359-42.77 12.617c-9.2383 7.3672-40.602 32.164-46.727 32.359-14.438-0.96094-58.203-12.984-82.391-20.352-12.266-3.7266-25.043 3.6914-28.578 16.625-3.5352 12.898 3.5156 26.371 15.766 30.117 6.8945 2.082 68.039 20.547 92.207 22.191 0.83984 0.035156 1.6641 0.070313 2.5039 0.070313 12.301 0 26.738-5.8633 40.441-13.562 3.7109 90.789 15.801 259.42 15.801 259.42 0 15.75 12.129 28.523 27.09 28.523 14.945 0 27.09-12.758 27.09-28.523 0 0-4.6211-149.43 8.3984-149.43s8.418 149.43 8.418 149.43c0 15.75 12.129 28.523 27.074 28.523 14.98 0 27.109-12.758 27.109-28.523 0 0 5.1641-72.117 9.7812-147.4 10.852-1.2969 19.637-10.395 20.457-22.262 0.12109-1.6094 1.418-62.949 1.4531-108.87 0.019531-26.41-6.7188-40.078-29.203-53.082z"/>
    <path d="m173.14 282.84v-229.55h260.54v79.152c3.7656-2.9062 7.9297-6.1445 12.652-9.9414 4.3242-3.4297 9.1719-6.125 14.121-8.3828l0.003907-61.984c0-14.156-11.496-25.637-25.621-25.637h-262.89c-14.121 0-25.621 11.48-25.621 25.637v231.86c0 14.156 11.496 25.637 25.621 25.637h262.69c-0.54297-9.0117-1.0664-17.938-1.5742-26.773l-259.93-0.003907z"/>
  </g>
</svg>